<svg version="1.2" xmlns="http://www.w3.org/2000/svg" viewBox="0 0 1087 780" width="1207" height="866">
	<title>Hero-BG-svg</title>
	<style>
		.s0 { fill: #070a0a } 
		.s1 { fill: none;stroke: #171716;stroke-miterlimit:10;stroke-width: 3 } 
		.s2 { fill: #a53a3a } 
		.s3 { fill: #f6f6f6 } 
		.s4 { fill: #82c88c } 
		.s5 { fill: #dad9d9 } 
		.s6 { fill: #e9a237 } 
		.s7 { fill: #59595b } 
		.s8 { fill: #171716 } 
		.s9 { fill: #707070 } 
		.s10 { fill: #737272 } 
		.s11 { fill: #727272 } 
		.s12 { fill: #a0a1a1 } 
		.s13 { fill: #dad9d8 } 
		.s14 { fill: #a4a3a4 } 
	</style>
	<path id="Layer" fill-rule="evenodd" class="s0" d="m611.2 377.6c-2.1-0.7-4.1-1.4-6.2-2.2-1.6-0.6-3.1-1.5-4.9-2.1-2.7-0.8-5.5-1.8-7.9-3.6-1.8-1.3-4-2.2-5.9-3.2-0.5-0.2-1-0.4-1.4-0.6h0.1c-1.4-1.4-3.2-1.7-5.1-1.7-0.2-0.2-0.4-0.4-0.5-0.6-0.2 0.2-0.3 0.4-0.5 0.7-3.8-0.7-7-2.6-9.5-5.5-1-1.2-2.3-2-3.7-2.2-2.5-0.2-4.5-1.8-7-2-1.1-0.1-1.2-0.6-1-2.1-1.9-0.8-3.8-2.1-5.8-2.2-2.8-0.2-5.5-0.9-8.2-1.6-4.3-1.1-8.7-2-12.7-4-1.2-0.6-2.5-1.2-3.9-1.5-2.3-0.4-4.7-0.4-7.1-0.6-1.1-0.1-2.3-0.2-3.4-0.4-2.7-0.6-5.3-1.3-8-2-0.4-0.1-1-0.3-1-0.4-0.1-1.5-1.3-1.4-2.3-1.7-2.8-0.8-5.7-1.5-8.7-1.3-0.7 0.2-1.3 0.4-2 0.6-0.7 0-1.3-0.1-2-0.1-0.2-0.3-0.4-0.9-0.6-1-0.9-0.1-1 0.6-1 1.3-2.2-0.4-4.5-0.6-6.3-2.1-0.5-0.4-1.2-0.6-1.8-0.7-2.4-0.4-4.8-0.6-7.2-1-5.5-0.9-11-2-16.5-2.9-0.8-0.6-1.6-1.1-2.4-1.7-0.6-0.8-1.3-1.3-2.4-1.4-1.6-0.1-3.2-0.4-4.7-0.7-2.6-0.4-5.3-0.8-7.9-1.2-0.4 0-0.8-0.1-1.2-0.1 0 0.1 0 0.2-0.1 0.3q0.6 0.1 1.2 0.3c0.2 1.3-0.8 1.4-1.7 1.5-3.5 0.4-6.8-0.6-10.1-1.7-1.4-0.5-2.7-1.2-4.1-1.2-5.3-0.1-10.7-0.1-16-1-4-0.7-8-1.1-12-1.6-0.3 0-0.7 0-1 0-5.6-0.5-11.3-1-16.9-1.6 0-1.2-0.4-1.6-1.6-1.1-0.3 0-0.6 0.1-0.8 0.1-1.2 0-2.3-0.2-3.5 0-4.2 0.7-8.4 0.3-12.5-0.6-0.1-0.2-0.2-0.5-0.2-0.7-0.6-1.3-1.6-0.3-2.4-0.4-1.6 0.2-3.2 0.5-4.9 0.7-0.2-0.3-0.4-0.5-0.6-0.8-0.4-0.6-0.9-0.7-1.5-0.2-0.4 0.3-0.7 0.7-1.1 1-3.2-0.2-6.4-0.3-9.7-0.5-5.6-0.4-11.1-0.9-16.7-1.3-3-0.2-6.1-0.8-9.1 0.4-0.4 0.2-1 0.1-1.5 0.1-3 0-6-0.1-8.9-0.1q-0.8 0-1.5 0c-6.8-0.1-13.6-0.3-20.5-0.4-1.7 0-3.4-0.4-5 0.1-2.1 0.6-4.1 0.5-6.1 0.5-9.3 0.1-18.6 0.1-28 0.2-2.4 0-4.7 0.1-7.1-0.7-2-0.7-4.2-0.8-6.4 0-0.4 0.2-1 0.2-1.5 0.2-3.3 0.1-6.6 0.1-9.9-0.4-4-0.6-8-0.8-12-1.1-3.1-0.2-6.1-0.1-9.2-0.2-4.8-0.1-9.4-1.1-14.1-1.7-5.7-0.7-11.1-2.4-16.7-3.6-2.5-0.6-5-1.4-7.6-1.9-1.6-0.3-3.2-0.2-4.8 0.5-3 1.3-6 2.6-9.1 3.2-4.5 0.9-8.7 2.5-13.4 2.8-3.6 0.2-7.2 1.1-10.9 1.3-12 0.6-23.9 0.2-35.7-2.4-4.4-1-8.7-2-13-3.2-3.6-1-7-2.5-10.5-3.7-4.8-1.7-9.1-4-12.3-8.1-1.2-1.5-2.6-2.8-3.8-4.3-1.7-2.3-3.4-4.6-5-7-1.2-1.8-1.3-3.7-0.3-5.6 0.3 0 0.7 0 1-0.1q0.7 0.7 1.5 1.5c0.2 0.4 0.3 0.7 0.5 1.1 0 1.3 1 1.8 1.8 2.4 1.2 0.9 2.4 1.9 3.6 2.8 1 0.7 1.9 1.6 2.9 2.2 3.5 2 7.6 2.6 11.2 4.5 0.5 0.3 1.2 0.3 1.8 0.5q0.9 0.6 1.8 1.2c1.2 0.7 2.5 1.1 4.4 0.6-1.4-0.5-2.5-1-3.6-1.4-0.1-0.5-0.3-0.9-0.4-1.4-0.1-0.2-0.1-0.4-0.2-0.5 0.4 0 0.8-0.1 1.2-0.1 0.9 0.4 1.9 0.8 2.8 1.3 1.9 1 3.6 2.1 6 1.6-0.1-0.5-0.2-0.8-0.3-1.4 2 0.8 3.7 1.4 5.5 2.1h0.1c0.6 0.3 1.1 0.6 1.7 0.9 0.4 0.1 0.7 0.3 1.1 0.4 0.1-0.1 0.2-0.3 0.3-0.4-0.5-0.3-0.9-0.6-1.4-0.9-0.2-0.1-0.3-0.3-0.5-0.4q0.6-0.1 1.2-0.3c1.2 0.4 2.7 0.3 3.2 1.7 0.5 1.5 1.6 1.8 2.9 1.8 2.6 0.1 5.1 0.1 7.7 0.1 0.6 0 1.2-0.1 1.7 0 2.1 0.5 4.3 0.6 6.3 1.6 0.9 0.4 2.1 0.3 3.1 0.2 1.7-0.1 3.4-0.3 5.1-0.5 0.3 0 0.6-0.2 0.8-0.4 0.3-0.3 0.6-0.5 0.9-0.8 1.3 0 2.6 0 3.9 0.1 1.3 0 2.6 0.1 4 0.2 0.7 0 1.1-0.3 1-1.1 0.2-0.2 0.4-0.4 0.5-0.6 2.3 0.2 4.4-0.3 6.5-1.7-1.4-0.6-2.6-1.1-3.8-1.7-6-2.8-11.6-6.3-17-10.1-5.4-3.8-10.8-7.6-15.2-12.6-3.5-4-5.8-8.4-7.1-13.5-0.7-2.8-0.7-5.5 0.1-8.2 1.6-5.1 4.5-9.2 9.6-11.3 4.3-1.8 8.7-3 13.4-2.3 1.9 0.3 3.8 0.3 5.6 0.7 3.7 0.7 7.5 1.4 11.2 2.4 4.5 1.3 8.7 3.4 12.7 5.7 4.8 2.7 9.1 6 13.1 9.7 5 4.7 9.2 10.1 12.5 16.1 2.1 3.9 4 8 3.8 12.6-0.1 2.5-0.2 5.1-1.2 7.4-0.7 1.8-1.8 3.4-2.8 5.4 5.3 1.4 10.5 2.9 15.9 3.3 2.2 0.2 4.5 0.1 6.7 0.2 0.4 0 0.9 0 1.2 0.3 2.7 2 5.9 2 9 2.5q1.3 0.2 2.7 0.3c2.7 0.2 5.4 0.6 8.1 0.7 5.8 0.2 11.6 0.4 17.4 0.5 0.5 0 1 0 1.4-0.3 1.7-1.2 3.6-1 5.5-1 1.1 0 2.3 0.2 3.1-0.4 1.3-0.9 2.6-0.9 4-0.9 1.7 0 3.3 0.2 5 0.2 1.1 0 2.2-0.1 3.7-0.2-0.6-0.7-0.8-1-1.1-1.3 0.1-0.1 0.1-0.2 0.2-0.3 1.4 0.1 2.8 0.3 4.2 0.2 3.3-0.1 6.6-0.3 9.8-0.4 0.4 1.4 1.5 1.5 2.6 1.4 2 0.3 4.2-0.2 6 1.4 0.4 0.4 1.3 0.2 1.9 0.2 2.6 0.1 5.1 0.1 7.7 0.3 5.2 0.3 10.3 1.2 15.5-0.3 0.8-0.2 1.9-0.4 2.5 0.9 0.1 0.3 1 0.4 1.5 0.5 1 0.2 1.9 0.3 2.9 0.5 1.8 0.2 3.6 0.3 5.3 0.5 0.3 0 0.7 0 1 0 2.1 0.3 4.3 0.5 6.4 0.8 0-0.2 0.1-0.3 0.1-0.5-1.2-0.3-2.3-0.5-3.5-0.8 0.2-0.3 0.3-0.6 0.5-1 2.3 0 4.7 0.2 7-0.1 2.5-0.4 5-1 7.5-0.9 0.4 0 0.7 0 1.1-0.1 2.3 0.6 4.5 0.8 6.8 0 0.1-0.5 0.2-1 0.4-1.6 3.9 0.3 7.6 0.7 11.4 0.9 1.4 0.1 2.8-0.1 4.2-0.2 0.9-0.1 1.2-0.7 1.2-1.5 0.2-0.2 0.3-0.3 0.5-0.5 0.3 0 0.6 0 1 0 0.2 1.3 1.1 1.4 2.1 1.4 1.1 0.2 2.2 0.5 3.4 0.6 3.8 0.4 7.7 0.7 11.5 1.1 0 0.8 0.1 1.5 1.2 1.2 0.8 0.2 1.6 0.4 2.3 0.6-1 0.2-2 0.4-3 0.5-1 0-1.9-0.9-3.3-0.1 1.3 0.8 2.4 0.6 3.3 0.6 1.8 0.7 3.7 0.8 5.5 0.1 1.7 0 3.3-0.1 5 0 5.1 0.2 10.2 0.5 15.3 0.8 2.8 0.2 5.5-0.1 8.3 1.4 2.9 1.5 6.3 1.5 9.7 1.5 3.5 0 7.1-0.5 10.6 0.2 1.5 0.3 3.4 0.2 4.3 2.2-0.5 0.4-0.9 0.7-1.3 1 1.2 0.5 2.5 0.8 3.7 1.5 2.1 1.3 4.3 1.9 6.8 1.7 0.2 0 0.4-0.3 0.7-0.5 0.4-0.3 0.7-0.7 1.1-1 4.2-0.1 8.4 0.3 12.5 1.5 2 0.6 4 1.3 5.9 2 2.1 0.7 4.2 0.7 6.4 0 1.6-0.5 3.4-0.8 5-0.7 2.2 0.1 4.4 0.5 6.5 1 5.3 1.4 10.6 3 15.8 4.7 4.3 1.4 8.6 2.9 12.9 4.4 1.6 0.6 3.2 1.3 4.9 2 0.1 0.4 0.3 0.7 0.4 1.1 0.3 0.3 0.7 0.6 1 0.9 1.9 0.6 3.7 1.3 5.6 1.9 1.6 0.5 3.2 0.9 4.9 1.4 0.8 0.2 1.7 0.3 2.5 0.5 0-0.2 0.1-0.4 0.1-0.6-0.9-0.2-1.8-0.3-2.7-0.5-1.4-0.7-2.7-1.5-3.9-2.7-0.6-0.6-1.7-0.8-2.6-1.1 0.2-0.5 0.4-0.9 0.6-1.4 3.5 0.6 6.9 1.1 10.4 1.7 1.3 0.2 2.6 0.2 3.6 1.3 0.2 0.5-1.3 1-0.1 1.6 0.7 0.3 1.3 0.7 2 1 2.1 1.2 4.4 2.1 6.3 3.5 1.8 1.4 3.6 1.7 5.7 1.4 0.6 0 1.2 0.1 1.8 0.1 0-0.1 0.1-0.3 0.1-0.4-0.5-0.2-1-0.4-1.4-0.6-0.7-0.4-1.3-0.7-2-1.1q0.7-0.3 1.5-0.6c1 0.1 1.9 0.1 2.9 0.2 0.7 0.5 1.4 1 2.1 1.4 1.8 1 3.8 0.7 5.7 1.1 2.5 0.7 4.9 1.8 7.3 2.8-0.5 1.6-0.5 1.7 1.1 2 1.9 0.7 3.8 1.4 5.9 2.2-0.4 0.4-0.9 0.8-1.3 1.2 1.4 0.5 2.8 1.2 4.3 1.6 2 0.6 3.5 1.5 3 3.8 0.9 0.5 1.7 1 2.5 1.2 2 0.6 4 1.1 6 1.8 2.6 1 5.2 2.1 7.8 3.2 2.1 0.9 4 2.2 6.5 2.1 1.2 0 2.4 0.8 3.5 1.4 0.3 0.2 0.5 0.7 0.7 1.1-0.9 0.3-1.5 0.2-2.1 0-1.8-0.4-3.4-1.7-5.4-1.1-0.7-0.3-1.5-0.6-2.2-1q-2.4-1.5-4.8-3c-0.5-0.3-1.2-0.4-1.8-0.6-0.1 0.2-0.2 0.3-0.3 0.5 2.5 1.6 5 3.3 7.6 4.9 0.2 0.2 0.6 0.1 0.9 0.1 0.2 0.1 0.4 0.3 0.6 0.4 5.1 1.2 10 3 14.8 5.2q1.5 0.7 3 1.5c1.4 0.8 2.7 1.5 4.1 2.3 0.3 0.1 0.5 0.1 0.8 0.2 1.2 0.7 2.3 1.4 3.5 2 0.5 0.3 1.1 0.3 1.6 0.5-0.1 0.1-0.1 0.2-0.1 0.4 0 0.1 0.1 0.1 0.1 0.2 0.7 0.5 1.4 0.9 2.1 1.5 0.5-1.7-1-1.5-1.5-2.2 0.2-0.2 0.4-0.3 0.6-0.5q0.4 0.1 0.9 0.3c6.2 3.4 12.3 6.8 18.5 10.2-0.3 0.2-0.5 0.3-0.8 0.5-0.8-0.2-1.4-0.2-1.8 0.7-0.3 0.8 0.2 1.2 0.8 1.6 0.5 0.3 1 0.6 1.4 0.9 0.8 0.6 1.6 1.6 2.6 1.8 1.9 0.4 3.5 1.2 5.2 2.1 0.5 0.3 1 0.7 1.5 1 0.8 0.8 1.7 1.7 2.5 2.5-0.2 0.2-0.4 0.3-0.6 0.5-1.7-1.1-3.5-2.1-5.6-3.4 0.1 0.8 0.1 1.1 0.1 1.3-0.2 0.1-0.4 0.2-0.6 0.2-1.8-1.3-3.7-2.6-5.5-4-3.2-2.5-6.4-4.8-10.5-5.7-0.9-0.2-1.8-0.7-2.7-1.2-5.4-3.2-10.6-6.8-16.6-8.8-1 0.2-2.1-0.2-3.3-0.7zm-499.2-111.2c-0.1 0.1-0.1 0.2-0.1 0.4-0.9-0.3-1.7-0.5-2.6-0.8-0.1 1.3 0.3 1.8 2.6 2.9q1.2 1 2.4 2.1c0.4 0.3 0.7 0.6 1.1 0.9 0.9 0.8 1.3 0.1 1.6-0.7 1.2 1 2.4 1.9 3.6 2.9 0.2 0.5 0.3 1.1 0.5 1.6 0.7 0.8 1.4 1.6 2.1 2.3 1.2 1.2 2.5 2.3 3.8 3.4 0.8 0.7 1.7 1.2 2.5 1.7q1.5 0.7 3 1.5c4.3 2 8.7 4 13 6 2.5 1.2 5 2.4 7.5 3.5 0.9 0.4 1.8 1 2.7 0 0.8-1 2.4-1.8 1.4-3.5-0.1-0.2-0.2-0.4-0.3-0.8 1.6-0.1 2-1.1 2.1-2.5 0.1-1 1.1-1.9-0.3-3-0.7-0.5-0.9-1.8-1.3-2.8-1.3-3-3.3-5.5-5.5-7.8-0.6-0.6-0.9-1.4-1.3-2.2-0.7-1-1.3-1.9-2.3-3.4-0.1 0.9-0.2 1.2-0.2 1.4-0.4 0-0.7 0-1.1 0-1.8-1.7-3.6-3.3-4.5-5.7-0.5-1.3-2-2.2-3.2-3.1-1-0.8-2.4-1.1-3.4-1.9-1.3-1-2.7-1.5-4.3-1.2-0.2 0.2-0.3 0.3-0.5 0.5h-0.1c-0.5 0.4-0.9 0.7-1.4 1.1-2.5 0.7-4.4-0.9-6.7-1.5-0.2 0.5-0.3 1-0.6 1.7-4.1-1.2-8.6-1-12.5-4.2-1.2 0-2.5 0.5-3.2 2-0.2 0.4-0.3 0.8-0.5 1.1-0.5 0.7-1.1 1.3-0.2 2.1 1.3 1.2 2.7 2.4 4 3.7q0.8 0.5 1.5 0.9c0.3 0.5 0.5 1 0.7 1.4zm17.3-8.2c-0.9-1.2-2.2-1.3-3.2-1.6 0.5 1.3 1.5 1.9 3.2 1.6zm190 50.9c0-0.1 0.1-0.2 0.1-0.4-0.5-0.1-1-0.3-1.4-0.4 0 0.2 0 0.4-0.1 0.7 0.4 0.1 0.9 0.1 1.4 0.1z"/>
	<path id="Layer" class="s1" d="m680 75.1c-15.3 0-27.6-12.3-27.6-27.6 0-15.3 12.3-27.6 27.6-27.6 15.3 0 27.6 12.3 27.6 27.6 0 15.3-12.3 27.6-27.6 27.6z"/>
	<path id="Layer" class="s2" d="m-191.9 306.5c-0.3 0.2-0.6 0.3-0.9 0.5 0.3-0.2 0.6-0.3 0.9-0.5z"/>
	<path id="Layer" class="s3" d="m1003.9 639.9h-768.9c-13.5 0-24.4-10.9-24.4-24.4v-510.3h822.4v505.5c0 16.1-13 29.2-29.1 29.2z"/>
	<path id="Layer" fill-rule="evenodd" class="s0" d="m415.3 762.1c-6.9 2.9-12.6 7.6-18.6 11.9-0.9 0.7-1.9 1.3-3 1.7-4.7 1.5-8.2 4.5-11.7 7.7-2 1.8-4 3.5-6 5.3-0.2-0.1-0.5-0.1-0.7-0.2 0-0.3 0-0.7 0-1.6-2.3 1.7-4.3 3.1-6.2 4.6-0.2-0.2-0.5-0.3-0.7-0.5 0.9-1.1 1.8-2.2 2.7-3.2 0.6-0.4 1.1-0.9 1.7-1.3 1.8-1.2 3.7-2.2 5.8-2.9 1.1-0.4 1.9-1.6 2.8-2.4 0.5-0.4 1.1-0.8 1.6-1.2 0.6-0.5 1.2-0.9 0.8-1.9-0.5-1.1-1.3-1-2.1-0.7-0.3-0.2-0.7-0.3-1-0.5 6.9-4.6 13.7-9.2 20.6-13.8 0.3-0.2 0.7-0.3 1-0.5 0.3 0.2 0.5 0.3 0.8 0.5-0.5 0.8-2.2 0.8-1.5 2.7 0.8-0.7 1.6-1.3 2.3-1.9 0-0.1 0.1-0.2 0.1-0.2 0-0.1-0.1-0.3-0.2-0.4 0.6-0.2 1.3-0.3 1.9-0.7q1.9-1.3 3.9-2.7 0.4-0.2 0.9-0.3c1.5-1 3-2 4.6-3.1 1.1-0.7 2.2-1.4 3.4-2.1 5.3-3.1 10.9-5.7 16.8-7.6 0.3-0.1 0.4-0.3 0.7-0.5 0.4-0.1 0.8 0 1.1-0.2 2.8-2.1 5.6-4.3 8.4-6.5-0.1-0.2-0.2-0.4-0.4-0.6-0.7 0.3-1.4 0.5-2 0.9-1.8 1.3-3.5 2.7-5.3 4-0.8 0.5-1.6 0.9-2.4 1.4-2.4-0.5-4.2 1.2-6.2 1.9-0.7 0.2-1.4 0.4-2.5 0.2 0.2-0.5 0.4-1.2 0.7-1.4 1.3-0.8 2.6-1.9 4-2 2.9-0.2 5-1.9 7.3-3.1 2.9-1.5 5.8-3.1 8.8-4.5 2.2-1 4.6-1.7 6.8-2.7 0.9-0.4 1.8-1 2.8-1.7-0.8-2.7 0.9-3.9 3.1-4.8 1.7-0.6 3.2-1.5 4.9-2.3-0.6-0.5-1.1-0.9-1.7-1.3 2.3-1.1 4.5-2.1 6.7-3.1 1.8-0.6 1.8-0.7 1-2.5 2.8-1.4 5.4-3 8.3-4 2.1-0.8 4.6-0.5 6.5-1.9 0.8-0.6 1.6-1.2 2.4-1.9 1.1-0.2 2.2-0.3 3.4-0.5 0.6 0.2 1.2 0.3 1.8 0.5-0.7 0.5-1.5 1-2.2 1.4-0.5 0.3-1.1 0.5-1.6 0.8 0.1 0.2 0.1 0.3 0.2 0.5q1-0.2 2.1-0.3c2.5 0.2 4.6-0.3 6.5-2.2 2-1.9 4.6-3.2 7-4.8 0.7-0.4 1.5-0.9 2.2-1.3 1.4-0.8-0.5-1.2-0.3-1.8 1-1.5 2.6-1.6 4-1.9q6-1.5 12-3c0.3 0.5 0.5 1 0.8 1.5-1 0.5-2.3 0.8-2.9 1.6-1.2 1.5-2.7 2.5-4.3 3.5-1 0.3-2 0.6-3.1 0.9 0.1 0.2 0.1 0.5 0.2 0.7 1-0.3 1.9-0.5 2.9-0.8 1.9-0.7 3.7-1.3 5.6-2.1 2.1-0.9 4.2-1.9 6.3-2.8 0.4-0.4 0.8-0.8 1.1-1.1 0.1-0.4 0.2-0.9 0.4-1.3 1.8-0.9 3.6-2 5.5-2.8 4.9-2.2 9.7-4.4 14.7-6.5 6-2.5 12-4.8 18-7 2.4-0.9 5-1.5 7.5-1.9 1.9-0.3 4-0.1 6 0.4 2.6 0.6 5.1 0.3 7.5-0.7 2.3-1 4.5-2 6.8-2.9 4.6-1.8 9.5-2.8 14.4-3.1 0.5 0.4 0.9 0.7 1.4 1.1 0.3 0.2 0.6 0.5 0.8 0.5 2.9-0.1 5.4-1 7.7-2.7 1.2-0.9 2.8-1.5 4.1-2.1-0.4-0.3-1-0.7-1.6-1.1 0.8-2.5 3-2.5 4.8-3 4-1.2 8.2-0.9 12.3-1.3 3.9-0.3 8-0.6 11.2-2.7 3.1-2 6.3-2 9.5-2.5 5.9-0.9 11.9-1.7 17.8-2.5 1.9-0.3 3.9-0.3 5.8-0.5 2.2 0.7 4.4 0.4 6.4-0.7 1.2-0.1 2.4 0.1 3.9-1-1.8-0.7-2.8 0.3-3.9 0.5q-1.8-0.2-3.6-0.3c0.9-0.3 1.8-0.6 2.7-1 1.3 0.1 1.3-0.6 1.3-1.6 4.4-0.8 8.9-1.6 13.3-2.4 1.3-0.3 2.6-0.7 3.9-1 1.2 0 2.2-0.3 2.3-1.8 0.4 0 0.7-0.1 1.1-0.1 0.2 0.2 0.4 0.3 0.6 0.5 0.1 1 0.6 1.7 1.6 1.7 1.6 0 3.3 0.1 4.9-0.2 4.4-0.7 8.7-1.5 13.2-2.2 0.2 0.7 0.4 1.2 0.6 1.8 2.7 0.7 5.3 0.2 7.9-0.7q0.6 0 1.2 0c3-0.3 5.9 0.1 8.9 0.3 2.7 0.2 5.4-0.3 8.1-0.6 0.2 0.4 0.4 0.7 0.7 1.1-1.3 0.4-2.7 0.9-4 1.3 0 0.2 0.1 0.3 0.1 0.5 2.5-0.5 5-1.1 7.4-1.6 0.4 0 0.8-0.1 1.2-0.1 2.1-0.4 4.1-0.7 6.2-1.1 1.1-0.2 2.2-0.5 3.3-0.8 0.6-0.2 1.6-0.4 1.7-0.8 0.5-1.6 1.8-1.5 2.8-1.3 6.2 1.2 12.1-0.4 18.1-1.2 3-0.4 6-0.7 9-1.1 0.8-0.1 1.8 0 2.2-0.4 1.9-2 4.5-1.6 6.9-2.2 1.4-0.1 2.7-0.2 3-1.9 3.9-0.2 7.7-0.3 11.6-0.5 1.6-0.1 3.2-0.4 4.8-0.7 0.1 0.1 0.2 0.2 0.3 0.4-0.3 0.4-0.5 0.7-1.1 1.6 1.7 0 3 0 4.3-0.1 1.9-0.2 3.9-0.5 5.8-0.7 1.6-0.2 3.2-0.3 4.8 0.6 1 0.5 2.5 0.2 3.7 0.1 2.2-0.2 4.4-0.6 6.5 0.6 0.4 0.2 1.1 0.2 1.6 0.2 6.8-0.8 13.5-1.5 20.3-2.4 3.2-0.4 6.3-1.1 9.4-1.6 1-0.2 2.1-0.4 3.1-0.6 3.6-0.9 7.4-1.2 10.3-3.9 0.3-0.3 0.9-0.4 1.4-0.4 2.6-0.3 5.3-0.5 7.9-0.9 6.3-1 12.2-3.2 18.3-5.5-1.4-2.1-2.8-4-3.8-6-1.4-2.7-1.8-5.6-2.2-8.6-0.6-5.4 1.1-10.4 3.2-15.2 3.3-7.4 7.6-14.1 13-20.1 4.3-4.8 9.1-9 14.4-12.7 4.5-3.1 9.2-6 14.3-8 4.2-1.6 8.5-2.8 12.8-4 2.1-0.6 4.3-0.8 6.5-1.3 5.5-1.3 10.7-0.3 15.9 1.3 6.2 2 10 6.5 12.4 12.3 1.3 3.1 1.6 6.2 1 9.6-1.1 6.1-3.3 11.5-7 16.5-4.7 6.3-10.6 11.4-16.5 16.3-6 5-12.2 9.6-18.9 13.5-1.3 0.8-2.7 1.5-4.3 2.4 2.6 1.3 5.1 1.8 7.8 1.3 0.2 0.2 0.5 0.4 0.7 0.6 0 0.9 0.5 1.2 1.3 1.1 1.5-0.2 3.1-0.4 4.6-0.6 1.5-0.2 3.1-0.3 4.6-0.5 0.4 0.3 0.8 0.5 1.2 0.8 0.3 0.1 0.7 0.3 1 0.4 2 0.1 4 0.1 6 0.1 1.2 0 2.7 0 3.7-0.6 2.2-1.4 4.8-1.7 7.2-2.5 0.6-0.2 1.3-0.2 2-0.2 3-0.3 6-0.5 9-0.9 1.5-0.2 2.7-0.7 3.2-2.4 0.4-1.7 2.2-1.8 3.6-2.3 0.5 0.1 1 0.1 1.5 0.2-0.2 0.2-0.4 0.3-0.5 0.5q-0.8 0.6-1.5 1.2c0.1 0.1 0.2 0.3 0.4 0.4q0.6-0.3 1.2-0.6c0.6-0.4 1.3-0.8 1.9-1.2h0.1c2-1 4-2 6.2-3-0.1 0.7-0.2 1.1-0.2 1.7 2.8 0.3 4.8-1.2 6.8-2.5 1-0.6 2.1-1.2 3.1-1.8q0.7 0 1.5 0c-0.1 0.2-0.1 0.4-0.2 0.7-0.1 0.5-0.2 1.1-0.3 1.6-1.2 0.6-2.5 1.2-4.1 2 2.3 0.3 3.7-0.3 5.1-1.2 0.6-0.5 1.3-1.1 1.9-1.6 0.7-0.2 1.5-0.4 2.1-0.7 4-2.5 8.7-3.7 12.7-6.4 1.2-0.8 2.1-1.9 3.2-2.8 1.3-1.2 2.6-2.4 4-3.7 0.9-0.8 2-1.5 1.9-3 0.2-0.4 0.3-0.9 0.5-1.3 0.5-0.6 1.1-1.3 1.6-1.9q0.6 0 1.2 0c1.4 2.2 1.4 4.4 0.2 6.6-1.6 2.9-3.4 5.8-5.2 8.7-1.2 1.9-2.7 3.5-4 5.4-3.4 5-8.2 8.2-13.6 10.7-4 1.8-7.8 3.8-11.9 5.4-4.9 1.9-9.9 3.5-14.9 5.1-13.5 4.2-27.4 5.9-41.5 6.4-4.3 0.2-8.6-0.5-12.8-0.4-5.4 0.2-10.6-1.3-15.9-1.9-3.7-0.4-7.4-1.7-11-2.9-2-0.6-3.9-0.6-5.7-0.1-2.9 0.8-5.8 2-8.7 2.9-6.4 2-12.6 4.5-19.2 5.8-5.4 1.1-10.8 2.8-16.3 3.4-3.6 0.4-7.2 0.7-10.8 1.2-4.7 0.7-9.4 1.3-14 2.5-3.8 1-7.6 1.3-11.5 1.5-0.6 0-1.2 0.1-1.7-0.1-2.6-0.7-5.1-0.4-7.4 0.6-2.7 1.1-5.4 1.3-8.2 1.5-10.9 0.8-21.8 1.7-32.7 2.5-2.4 0.2-4.7 0.5-7.2 0-1.8-0.4-3.9 0.2-5.8 0.4-8 0.8-15.9 1.7-23.9 2.5-0.6 0.1-1.2 0.1-1.7 0.2-3.5 0.4-7 0.7-10.4 1.1-0.6 0.1-1.2 0.2-1.7 0.1-3.6-1.1-7.1 0-10.7 0.5-6.5 1-13 2.2-19.4 3.2-3.7 0.6-7.5 1-11.2 1.5-0.5-0.4-0.9-0.7-1.4-1.1-0.7-0.5-1.3-0.4-1.7 0.4q-0.3 0.4-0.6 0.9-2.9-0.2-5.7-0.3c-1 0.2-2.2-0.8-2.8 0.7-0.1 0.3-0.1 0.6-0.2 0.9-4.7 1.5-9.6 2.4-14.6 2-1.3-0.1-2.7 0.2-4.1 0.4-0.3 0-0.7 0-1 0-1.4-0.4-1.9 0.1-1.7 1.5-6.6 1.2-13.1 2.4-19.7 3.5-0.4 0-0.8 0.1-1.1 0.1-4.6 1-9.3 1.8-13.9 3.1-6.1 1.6-12.3 2.1-18.6 2.8-1.6 0.2-3.1 1.2-4.7 1.9-3.7 1.6-7.5 3.1-11.6 3-1.1 0-2.2 0-2.2-1.5 0.5-0.1 0.9-0.3 1.4-0.4 0-0.1-0.1-0.2-0.1-0.3-0.5 0.1-0.9 0.2-1.4 0.2-3 0.7-6.1 1.4-9.1 2.1-1.8 0.4-3.6 1-5.5 1.3-1.3 0.2-2.1 0.9-2.7 1.9-0.9 0.7-1.7 1.5-2.6 2.2-6.4 1.7-12.7 3.4-19.1 5.1-2.7 0.7-5.5 1.2-8.3 1.9-0.7 0.2-1.5 0.5-2 1-2.1 1.9-4.7 2.4-7.2 3.1 0-0.8-0.2-1.6-1.3-1.4-0.3 0.1-0.4 0.8-0.6 1.2-0.8 0.1-1.6 0.2-2.3 0.3-0.8-0.1-1.6-0.3-2.4-0.4-3.5 0-6.8 1.1-10.1 2.4-1.1 0.4-2.5 0.5-2.5 2.2 0 0.2-0.7 0.5-1.1 0.6-3 1.1-6.1 2.1-9.2 3.1-1.3 0.4-2.6 0.6-3.9 0.9-2.8 0.5-5.6 0.8-8.3 1.4-1.5 0.4-3 1.3-4.4 2.1-4.5 2.7-9.6 4.2-14.5 5.9-3.1 1.1-6.1 2.2-9.4 2.7-2.3 0.4-4.4 2.1-6.6 3.2 0.4 1.8 0.3 2.4-1 2.6-2.9 0.5-5.1 2.5-8 3.1-1.6 0.3-3 1.4-4.1 2.9-2.7 3.7-6.2 6.2-10.6 7.4-0.2-0.2-0.4-0.5-0.6-0.7-0.2 0.2-0.4 0.5-0.6 0.7-2.2 0.3-4.3 0.7-5.8 2.5h0.1c-0.5 0.3-1.1 0.5-1.6 0.8-2.2 1.4-4.6 2.7-6.6 4.4-2.7 2.3-5.8 3.7-8.9 5-2 0.8-3.6 2-5.5 2.9-2.3 1.1-4.7 2.1-7 3.2-1.6 0-2.9 0.7-4.3 1.3zm577.5-184.1c0.6-0.4 1.1-0.8 1.7-1.2 1.4-1.6 2.9-3.1 4.3-4.7 1-1 0.2-1.7-0.4-2.5-0.2-0.4-0.4-0.8-0.6-1.3-1-1.7-2.5-2.2-3.9-2-4.2 4.1-9.5 4.3-14.2 6.2-0.4-0.8-0.6-1.4-0.8-1.9-2.7 1-4.8 3.1-7.7 2.5-0.6-0.4-1.1-0.7-1.7-1.1l-0.1 0.1c-0.2-0.2-0.4-0.3-0.7-0.5-1.9-0.2-3.5 0.5-4.9 1.8-1.1 1-2.7 1.6-3.8 2.6-1.3 1.2-3.1 2.5-3.5 4-0.8 3-2.7 5.1-4.7 7.2-0.4 0-0.8 0.1-1.3 0.1-0.1-0.3-0.1-0.6-0.4-1.6-1 1.8-1.7 3-2.4 4.2-0.4 0.9-0.7 1.9-1.3 2.7-2.4 2.9-4.4 6.1-5.7 9.7-0.4 1.1-0.4 2.7-1.2 3.4-1.6 1.4-0.3 2.3-0.1 3.5 0.3 1.6 0.8 2.7 2.7 2.7-0.1 0.4-0.1 0.7-0.2 0.9-0.9 2.2 1 2.9 2.1 4 1.1 1.1 2.1 0.4 3.1-0.2 2.8-1.6 5.6-3.3 8.4-4.9 4.9-2.8 9.8-5.6 14.6-8.3 1.1-0.7 2.2-1.4 3.4-2 0.9-0.8 1.9-1.4 2.8-2.3 1.4-1.4 2.8-2.9 4.1-4.4 0.8-0.9 1.5-1.9 2.2-2.9 0.1-0.7 0.3-1.3 0.4-2 1.3-1.2 2.6-2.5 3.9-3.7 0.4 0.8 0.9 1.6 1.9 0.6q0.6-0.6 1.2-1.2c0.9-0.9 1.8-1.8 2.6-2.7 2.5-1.6 2.9-2.2 2.7-3.7q-1.5 0.6-3 1.2c0-0.2-0.1-0.3-0.2-0.4 0.3-0.8 0.5-1.3 0.7-1.9zm-18.1-8.4c-1.2 0.5-2.6 0.8-3.6 2.2 2.1 0.2 3.1-0.7 3.6-2.2zm-219.1 80.7c0-0.3-0.1-0.5-0.1-0.8-0.5 0.2-1.1 0.4-1.6 0.6 0 0.1 0.1 0.3 0.1 0.4 0.5 0 1.1-0.1 1.6-0.2z"/>
	<g id="Layer">
		<path id="Layer" class="s4" d="m590.5 731.6c0.1 1.9-0.5 2.6-2.2 3.2-0.2 0.1-0.5 0.2-0.7 0.2-2.6 0.7-4.3-0.1-5.1-2.8-0.3-0.9 0.7-2.6 1.8-3.2 0.8-0.5 1.7-0.7 2.6-0.3 0.8 0.3 1.5 0.5 2.3 0.7 0.9 0.2 1.3 0.6 1.2 1.6 0 0.2 0.1 0.4 0.1 0.6z"/>
		<path id="Layer" class="s4" d="m651.6 711.3c0-1.9 0.4-2.4 2.6-3.2 1.1-0.4 2.5 0.1 3.4 1.3 0.8 1 0.9 2.5 0.2 3.7-0.4 0.6-0.5 1.3-0.8 1.9-0.2 0.5-0.5 0.7-1 0.7h-0.1c-3.2 0.3-4.3-0.8-4.3-4.4z"/>
		<path id="Layer" class="s4" d="m557.5 728.4c0.1 0.8-0.1 1.5-0.9 1.9-0.2 0.1-0.3 0.3-0.5 0.4-1.5 1.1-2.3 1.1-3.8 0.1q-1.8-1.2-1.2-3.6c0.1-0.6 0.3-1.1 0.4-1.7q0.2-1.1 1.2-1.2c2.8-0.7 4.2 0 4.8 3.3 0 0.2 0 0.5 0 0.8z"/>
		<path id="Layer" class="s4" d="m603.4 715.5c0 0.1 0 0.4-0.1 0.7-0.2 1.9-1.5 3-3.5 3.1-1.2 0-2.7-1.3-3-2.8-0.2-0.8-0.1-1.5 0.4-2.2 0.3-0.5 0.7-1 0.9-1.5 0.4-0.8 1-1 1.8-1 2.2 0.1 3.5 1.4 3.5 3.7z"/>
		<path id="Layer" class="s4" d="m612.2 704.5c1.6 0 3.4 1.9 3.4 3.5 0 1.5-1.8 3.3-3.3 3.3-1.1 0-2.1-0.7-3-1.3-0.6-0.3-0.4-1.1-0.5-1.6-0.2-2.9 1.4-3.7 3.4-3.9z"/>
		<path id="Layer" class="s4" d="m661.2 754.1c0-2.2 1.2-3.4 3.5-3.4 1.6 0 3.3 1.8 3.3 3.4 0 1.6-1.8 3.4-3.3 3.3-2-0.1-3.5-1.5-3.5-3.3z"/>
		<path id="Layer" class="s4" d="m628.9 722.2c0.5 0.1 1.4-0.1 1.7 0.4 0.6 0.9 1.4 1.8 1.5 2.9 0 1.6-1.8 3.4-3.5 3.3-1-0.1-1.9-0.6-2.7-1.1-0.6-0.5-0.6-1.4-0.6-2.2 0-2.3 1.2-3.3 3.6-3.3z"/>
		<path id="Layer" class="s4" d="m561 753c-0.2-3.1 2.3-3.8 4.5-3.5 0.1 0 0.3 0.1 0.4 0.1 2 1 2.4 4 0.8 5.6-0.9 0.9-2.4 1.4-3.5 0.5-0.1-0.1-0.3-0.1-0.4-0.2-1.7-0.7-1.8-0.7-1.8-2.5z"/>
		<path id="Layer" class="s4" d="m601 766.4c0-2.8 2.3-4.3 5-3.3 0 0 0.1 0 0.1 0.1 1.4 0.9 1.9 3.8 0.8 5.1-1.1 1.3-2.5 1.6-4 0.9-0.1-0.1-0.2-0.1-0.4-0.2-1.5-0.8-1.5-0.8-1.5-2.6z"/>
		<path id="Layer" class="s4" d="m651.3 678.3c1.7 0 3.3 1.4 3.5 3.3 0.1 1.3-1.4 3.1-2.8 3.4-0.4 0.1-0.9 0-1.3-0.2-0.4-0.2-0.8-0.4-1.2-0.5-1.1-0.3-1.5-1-1.5-2 0-2.4 0.7-3.8 3.3-4z"/>
		<path id="Layer" class="s4" d="m579.9 712.5c0-2.4 1.4-3.7 3.8-3.5 1 0 1.7 0.4 2.1 1.3 0.1 0.2 0.2 0.3 0.3 0.5 1 1.7 0.5 3.6-1.3 4.6-0.7 0.4-1.5 0.5-2.2 0.1-0.3-0.1-0.6-0.3-1-0.4-1.5-0.7-1.7-1-1.7-2.6z"/>
		<path id="Layer" class="s4" d="m613.8 669.9c0.9 0.1 1.8 0.2 2.2 1.4 0.1 0.3 0.3 0.5 0.4 0.8 0.7 1 0.5 2-0.1 2.9-0.7 1-1.7 1.9-2.9 1.6-1.1-0.2-2.4-0.5-3-1.6-0.6-1.1-0.4-2.4 0.1-3.6 0.4-0.9 1.6-1.5 3.3-1.5z"/>
		<path id="Layer" class="s4" d="m619.8 749.9c0-2.9 2.2-4.3 4.9-3.3 0.3 0.1 0.5 0.3 0.7 0.6 0.2 0.5 0.5 0.9 0.7 1.4 0.6 1.3 0.4 2.5-0.8 3.6-1 1-2.3 1.2-3.5 0.5-0.1-0.1-0.3-0.2-0.4-0.2-1.5-0.8-1.6-0.9-1.6-2.6z"/>
		<path id="Layer" class="s4" d="m594.4 669c0-2.8 2.4-4.4 5-3.3 0 0 0.1 0 0.1 0.1 1.1 0.6 1.8 3.4 1.2 4.5-0.9 1.7-2.6 2.3-4.2 1.5-0.1-0.1-0.2-0.1-0.4-0.2-1.6-0.7-1.6-0.8-1.7-2.6z"/>
		<path id="Layer" class="s4" d="m632.2 697.7c0.6 0.1 1.3-0.1 1.7 0.5 0.6 0.9 1.5 1.8 1.5 3 0 1.6-1.8 3.3-3.4 3.2-2-0.1-3.5-1.5-3.4-3.2 0-2.2 1.4-3.5 3.6-3.5z"/>
		<path id="Layer" class="s4" d="m571.3 727.7c0.5 0.1 1.3-0.2 1.6 0.3 0.6 1 1.5 1.9 1.6 3 0.1 1.6-1.8 3.4-3.4 3.2-2.4-0.2-3.5-1.1-3.5-3.2 0-2.1 1.3-3.4 3.7-3.3z"/>
		<path id="Layer" class="s4" d="m601.6 737.9c0-0.7 0-1.3 0.1-1.8 0.2-0.8 0.8-1.4 1.6-1.7 1-0.3 2-0.2 3-0.1 0.1 0 0.3 0.1 0.4 0.1 0.6 0.4 1.7 2.8 1.5 3.6-0.2 1.2-1.4 2.4-2.6 2.7-0.7 0.2-1.3 0-2-0.3-0.2-0.1-0.4-0.3-0.6-0.3-1.3-0.3-1.5-1.2-1.4-2.2z"/>
		<path id="Layer" class="s4" d="m556.5 697.7c0-2.8 2.5-4.4 5-3.2 0.3 0.1 0.4 0.3 0.6 0.6 0.2 0.3 0.3 0.7 0.6 1 1.7 2-0.8 4.9-2.8 4.9-1.8-0.1-3.4-1.6-3.4-3.3z"/>
		<path id="Layer" class="s4" d="m626.3 678.8c-0.3-3 1.6-3.7 3.6-3.7 1 0 1.6 0.3 2.1 1.2 0.5 0.9 1.3 1.8 0.8 3-0.6 1.4-1.6 2.1-3 2.5-0.3 0.1-0.7 0-1-0.2-0.3-0.2-0.6-0.4-0.9-0.5-1.3-0.3-2-1.1-1.6-2.3z"/>
		<path id="Layer" class="s4" d="m575.6 669.1c1.4 0 2.6 1.1 3.1 2.8 0.3 1.2-0.3 2.7-1.6 3.4-0.9 0.5-1.8 0.8-2.7 0.2-0.1-0.1-0.2-0.1-0.3-0.1-2-0.9-2.4-1.8-1.9-3.9 0.3-1.6 1.5-2.4 3.4-2.4z"/>
		<path id="Layer" class="s4" d="m585.6 747.3c0-2.8 2.5-4.3 5-3.2 0.2 0.1 0.4 0.3 0.5 0.5 0.2 0.4 0.4 0.9 0.7 1.3 0.9 1.2 0.5 2.3-0.3 3.3-0.8 1.1-2 1.5-3.3 1.1-0.7-0.2-1.3-0.5-1.8-0.8-0.9-0.5-0.8-1.4-0.8-2.2z"/>
		<path id="Layer" class="s4" d="m636.2 742.9c0-2.9 2.5-4.5 5-3.4 0.3 0.1 0.4 0.3 0.6 0.6 0.2 0.5 0.4 0.9 0.7 1.4 0.7 1 0.4 1.9-0.2 2.8-0.7 1-1.6 1.9-2.9 1.7-1.1-0.1-2-0.7-2.9-1.4-0.5-0.5-0.2-1.3-0.3-1.7z"/>
		<path id="Layer" class="s4" d="m602.2 689.7c-0.1-2.9 2.4-4.6 4.9-3.6 0.1 0 0.2 0.1 0.3 0.2 0.7 0.9 1.3 1.9 1.5 3 0.1 1-0.5 1.8-1.3 2.4-1.1 0.9-2.2 1.3-3.5 0.4-0.1-0.1-0.2-0.1-0.3-0.1-1.3-0.4-1.8-1.2-1.6-2.3z"/>
		<path id="Layer" class="s4" d="m589.2 696.4c-0.1-2.8 2.2-4.4 4.9-3.5 0.3 0.1 0.4 0.3 0.6 0.5 0.2 0.4 0.5 0.9 0.7 1.3 0.7 1 0.5 2-0.1 3-0.7 1.1-1.7 1.8-3 1.7-1-0.1-2-0.7-2.9-1.4-0.4-0.4-0.1-1.1-0.2-1.6z"/>
	</g>
	<path id="Layer" class="s5" d="m1033 109.8h-822.3v-17.1c0-5.8 4.7-10.5 10.5-10.5h801.4c5.8 0 10.5 4.7 10.5 10.5v17.1z"/>
	<path id="Layer" class="s3" d="m235.4 104.1c-3.9 0-7.1-3.2-7.1-7.1 0-3.9 3.2-7.1 7.1-7.1 3.9 0 7.1 3.2 7.1 7.1 0 3.9-3.2 7.1-7.1 7.1z"/>
	<path id="Layer" class="s5" d="m235.4 438.9c-3.9 0-7.1-3.2-7.1-7.1 0-3.9 3.2-7.1 7.1-7.1 3.9 0 7.1 3.2 7.1 7.1 0 3.9-3.2 7.1-7.1 7.1z"/>
	<path id="Layer" class="s5" d="m235.4 468.7c-3.9 0-7.1-3.2-7.1-7.1 0-3.9 3.2-7.1 7.1-7.1 3.9 0 7.1 3.2 7.1 7.1 0 3.9-3.2 7.1-7.1 7.1z"/>
	<path id="Layer" class="s5" d="m235.4 500.1c-3.9 0-7.1-3.2-7.1-7.1 0-3.9 3.2-7.1 7.1-7.1 3.9 0 7.1 3.2 7.1 7.1 0 3.9-3.2 7.1-7.1 7.1z"/>
	<path id="Layer" class="s3" d="m259.9 104.1c-3.9 0-7.1-3.2-7.1-7.1 0-3.9 3.2-7.1 7.1-7.1 3.9 0 7.1 3.2 7.1 7.1 0 3.9-3.2 7.1-7.1 7.1z"/>
	<path id="Layer" class="s3" d="m286 104.1c-3.9 0-7.1-3.2-7.1-7.1 0-3.9 3.2-7.1 7.1-7.1 3.9 0 7.1 3.2 7.1 7.1 0 3.9-3.2 7.1-7.1 7.1z"/>
	<path id="Layer" class="s5" d="m245.6 143.5h205.3v205.3h-205.3z"/>
	<path id="Layer" class="s5" d="m653.1 348.8h341.6v226.2h-341.6z"/>
	<path id="Layer" class="s6" d="m666.4 486.7h256.9v247.1h-256.9z"/>
	<path id="Layer" class="s5" d="m970.5 195.2h-435.1c-2.7 0-4.9-2.2-4.9-4.9v-4.4c0-2.7 2.2-4.9 4.9-4.9h435.1c2.7 0 4.9 2.2 4.9 4.9v4.4c-0.1 2.7-2.3 4.9-4.9 4.9z"/>
	<path id="Layer" class="s5" d="m922.1 221h-386.7c-2.7 0-4.9-2.2-4.9-4.9v-4.4c0-2.7 2.2-4.9 4.9-4.9h386.7c2.7 0 4.9 2.2 4.9 4.9v4.4c0 2.8-2.2 4.9-4.9 4.9z"/>
	<path id="Layer" class="s5" d="m899 246.2h-363.6c-2.7 0-4.9-2.2-4.9-4.9v-4.3c0-2.7 2.2-4.9 4.9-4.9h363.6c2.7 0 4.9 2.2 4.9 4.9v4.4c-0.1 2.7-2.2 4.8-4.9 4.8z"/>
	<path id="Layer" class="s5" d="m623.2 440h-363.5c-2.7 0-4.9-2.2-4.9-4.9v-4.4c0-2.7 2.2-4.9 4.9-4.9h363.6c2.7 0 4.9 2.2 4.9 4.9v4.4c-0.1 2.7-2.3 4.9-5 4.9z"/>
	<path id="Layer" class="s5" d="m623.2 469.1h-363.5c-2.7 0-4.9-2.2-4.9-4.9v-4.4c0-2.7 2.2-4.9 4.9-4.9h363.6c2.7 0 4.9 2.2 4.9 4.9v4.4c-0.1 2.8-2.3 4.9-5 4.9z"/>
	<path id="Layer" class="s5" d="m623.2 501.3h-363.5c-2.7 0-4.9-2.2-4.9-4.9v-4.4c0-2.7 2.2-4.9 4.9-4.9h363.6c2.7 0 4.9 2.2 4.9 4.9v4.4c-0.1 2.7-2.3 4.9-5 4.9z"/>
	<g id="Layer">
		<path id="Layer" class="s7" d="m923.2 493.5q0 2.3 0 4.5c0 0.6-0.2 1-0.7 1.2-4.4 2.2-8.5 5-12.2 8.2-2.2 1.9-4.3 3.8-6.3 5.9-2.3 2.4-4.3 5-6.1 7.8-1.4 2.2-2.8 4.5-4 6.9-1.9 3.8-3.2 7.7-3.9 11.8-0.9 5.6-1 11.1 0.4 16.6 1.8 7.1 5.8 12.8 11.8 17 2.9 2.1 6.2 3.2 9.4 4.6 3.5 1.5 7.3 2.3 10.9 3.4 0.5 0.1 0.7 0.3 0.7 0.9q0 4.2 0 8.4c0 0.5-0.2 0.6-0.7 0.6-2.1-0.2-4-1-6-1.5-4.3-1.1-8.4-2.6-12.4-4.3-5.3-2.3-10-5.6-14-9.9-4.4-4.8-7.3-10.3-9-16.5-0.8-2.8-1.1-5.7-1.4-8.6-0.6-5.6 0.2-11.2 1.6-16.6 0.9-3.5 2.3-6.9 3.9-10.2 1.6-3.2 3.5-6.2 5.4-9.2 0.5-0.8 1.2-1.5 1.8-2.3 6.2-7.9 13.6-14.4 22.2-19.6 2.4-1.4 4.8-2.8 7.4-3.8 0.4-0.2 0.8-0.7 1.1-0.4 0.2 0.2 0.1 0.8 0.1 1.2q0 1.9 0 3.9z"/>
		<path id="Layer" class="s7" d="m839.4 544.6c0.1-4.4 0.5-8.5 1.2-12.7 1-6 2.6-11.8 4.7-17.5 1-2.9 2.3-5.8 3.6-8.6 1.1-2.4 3.2-3.3 5.6-2.7 2.7 0.6 3.8 3.4 3.4 5.5-0.4 1.7-1.1 3.3-1.8 4.8-2.5 5.7-4.3 11.5-5.5 17.6-1.2 5.8-1.7 11.6-1.5 17.5 0.1 5.6 1.2 11.1 2.8 16.5 2.3 7.8 5.8 15 10.5 21.7 1.1 1.5 2.3 3 3.5 4.5 1 1.3 1.4 2.7 1 4.3-0.7 3.1-4.3 4.6-6.9 2.9-0.8-0.5-1.5-1.1-2.1-1.9-2.8-3.6-5.4-7.3-7.7-11.3-2.3-3.9-4.2-8.1-5.7-12.4-2-5.6-3.6-11.2-4.4-17.1-0.5-3.7-1-7.5-0.7-11.1z"/>
		<path id="Layer" class="s7" d="m859.3 548.2c-0.1-7.3 1.4-14.4 3.6-21.3 2.7-8.8 6.4-17.1 11.4-24.8 2.9-4.5 6.5-8.6 10.2-12.5 2.2-2.3 2.2-2.3 5.3-2.3 3.6 0 7.3 0 10.9 0 0.3 0 0.6-0.1 0.7 0.1 0.2 0.3-0.2 0.5-0.3 0.7-0.5 0.6-1 1.1-1.7 1.6-4.6 3.1-8.6 7-12.2 11.2-3.9 4.5-7.1 9.5-9.7 15-3 6.3-5.5 12.7-7.1 19.5-1.5 6.3-1.7 12.7-1 19.1 0.2 1.4 0.4 2.9-0.4 4.3-1 1.6-2.3 2.6-4.2 2.6-2.1-0.1-3.5-1.1-4.4-3-0.6-1.4-0.6-2.9-0.8-4.4-0.2-1.9-0.3-3.8-0.3-5.8z"/>
		<path id="Layer" class="s7" d="m923.2 606.1q0 2.1 0 4.2c0 0.4 0 0.6-0.5 0.5-3.7-0.7-7.5-1.4-11.2-2.2-5-1.1-9.7-2.7-14.5-4.5-4.6-1.7-8.7-4.1-12.7-6.8-3.9-2.7-7.3-5.8-10.3-9.4-3.1-3.6-5.6-7.7-7.7-12-0.5-1.1-1.2-2.2-1.5-3.4-0.3-1.8 0.2-3.3 1.6-4.5 2.6-2.3 6-1.1 7.2 1.3 0.4 0.7 0.7 1.4 1.1 2.1 4.4 9.2 11.1 16.3 20.1 21.1 4.9 2.6 10.1 4.2 15.3 5.7q6.1 1.7 12.3 2.7c0.5 0.1 0.7 0.3 0.7 0.9 0.1 1.5 0.1 2.9 0.1 4.3z"/>
		<path id="Layer" class="s7" d="m820.2 548.9c0-0.7-0.1-1.4 0-2.2 0.2-1.8 1.1-3.2 2.8-3.8 1.9-0.7 3.6-0.6 5.1 0.9 1.2 1.2 1.6 2.7 1.6 4.3 0.1 6.4 1.1 12.7 2.8 18.8 2.8 10.2 7.4 19.5 13.5 28.1 0.6 0.9 1.3 1.7 1.7 2.7 1 2.1 0.4 4.4-1.5 5.9-1.7 1.3-4.2 1.2-5.8-0.3-0.4-0.4-0.9-0.8-1.2-1.3-4.2-5.9-8.1-12-11-18.7-2.9-6.6-5.2-13.4-6.5-20.5-0.8-4.5-1.4-9.2-1.5-13.9z"/>
		<path id="Layer" class="s7" d="m923.2 626.3q0 2.1 0 4.2c0 0.4-0.1 0.7-0.6 0.5-5.3-1.3-10.7-2.3-16-3.7-6.2-1.7-12.3-3.6-18.2-6.2-6.4-2.8-12.2-6.4-17.4-11.2-2.1-1.9-2.5-4.2-1.2-6.4 1.5-2.4 4.1-2.8 6.3-1.7 0.7 0.4 1.4 0.9 2 1.5 5 4.8 10.9 7.9 17.3 10.4 7.8 3 15.8 5 24 6.8q1.3 0.3 2.7 0.6c0.7 0.1 1 0.4 0.9 1.1 0.1 1.3 0.2 2.7 0.2 4.1z"/>
		<path id="Layer" class="s7" d="m847.4 487.5c-0.9 1.3-1.7 2.6-2.6 4-3 4.5-5.3 9.3-7.5 14.2-2.9 6.5-4.9 13.3-6.2 20.2-0.5 2.3-0.7 4.7-1.2 7.1-0.4 1.6-1.1 2.8-2.6 3.6-2.5 1.2-6.6-0.2-6.8-3.9-0.1-1.6 0.3-3.1 0.5-4.7 1-8 3.2-15.6 6.2-23 2.2-5.7 5-11.1 8.1-16.3 0.5-0.9 1.2-1.2 2.2-1.2 3 0.1 6.1 0 9.1 0 0.2-0.1 0.5-0.2 0.8 0z"/>
		<path id="Layer" class="s7" d="m923.2 569.5q0 2.3 0 4.5c0 0.4 0 0.6-0.6 0.4-5.8-1.9-10.8-5.1-14.9-9.7q-5.1-5.7-6.9-13.2c-1.6-7-0.9-13.7 1.7-20.4 1.3-3.1 4.9-4.3 7.6-2.3 1.6 1.2 2 2.9 1.6 4.8-0.1 0.5-0.2 0.9-0.4 1.4-1.6 3.6-2 7.5-1.7 11.3 0.3 3.6 1.6 7 3.7 10 2.1 3.1 5 5.3 8.3 7 1.2 0.6 1.6 1.3 1.5 2.6 0 1.3 0.1 2.4 0.1 3.6z"/>
		<path id="Layer" class="s7" d="m923.2 508.4c0 3.7 0 7.2 0 10.7 0 0.4-0.1 0.7-0.4 1-1.1 1.1-2.1 2.2-3.3 3-2.3 1.5-5 1.1-6.7-1.2-1.1-1.5-1.1-3.7-0.1-5.2 1.6-2.2 3.6-3.9 5.8-5.4 1.6-0.8 3.1-1.8 4.7-2.9z"/>
		<path id="Layer" class="s7" d="m872.3 487.4c-2.7 2.8-4.5 5.8-6.7 8.7-1.1 1.5-2.4 2.5-4.4 2.5-2.9-0.1-5.2-3-4.4-5.8 0.2-0.8 0.6-1.6 1.1-2.3 0.6-0.7 1.1-1.5 1.5-2.3 0.3-0.6 0.8-0.8 1.5-0.8 3.5 0 6.9 0 10.4 0 0.2 0 0.5 0 1 0z"/>
		<path id="Layer" class="s7" d="m923.2 532.6c0 5.4 0 10.7 0 16-2.6-4.1-2.6-12 0-16z"/>
	</g>
	<path id="Layer" class="s8" d="m224.6 158.8h-190.8c-11 0-20-9-20-20v-0.8c0-11 9-20 20-20h190.8c11 0 20 9 20 20v0.9c0 10.9-9 19.9-20 19.9z"/>
	<path id="Layer" class="s4" d="m641.4 108.8c-23.4 0-42.4-19-42.4-42.4 0-23.4 19-42.4 42.4-42.4 23.4 0 42.4 19 42.4 42.4 0 23.4-19 42.4-42.4 42.4z"/>
	<g id="Layer">
		<path id="Layer" class="s3" d="m101.8 130.3c0 0.3 0 0.5 0 0.8 0 0.4 0 0.7 0 1.1 0 0.2-0.1 0.2-0.3 0.2-2.4 0-4.8 0-7.1 0q-0.6 0-1.2 0c-0.6 0-1.3 0.7-1.3 1.3 0 4.2 0 8.4 0 12.5 0 0.6 0.6 1.3 1.2 1.4 0.3 0.1 0.6 0.1 0.9 0.1 3.9 0 7.7 0 11.6 0 0.9 0 1.4-0.5 1.6-1.2 0.1-0.2 0.1-0.5 0.1-0.8q0-3.3 0-6.6c0-0.4 0-0.7 0-1.1 0-0.2 0-0.3 0.2-0.3q0.9 0 1.8 0c0.1 0 0.1 0.1 0.2 0.1 0 0 0 0 0 0.1 0 2.6 0 5.3 0 7.9 0 1.1-0.4 2.1-1.2 2.9-0.8 0.8-1.7 1.1-2.9 1-0.1 0-0.1 0-0.2 0-3.9 0-7.8 0-11.6 0-0.4 0-0.8 0-1.2-0.1-0.5-0.1-0.8-0.3-1.2-0.6-0.5-0.3-0.8-0.8-1-1.3-0.2-0.4-0.3-0.7-0.4-1.1-0.1-0.5 0-1.1 0-1.6q0-5.5 0-11.1c0-0.9 0.3-1.7 0.8-2.4 0.6-0.7 1.3-1.3 2.3-1.4 0.5-0.1 1-0.1 1.6-0.1 2.3 0 4.7 0 7 0 0 0.3 0.2 0.3 0.3 0.3z"/>
		<path id="Layer" fill-rule="evenodd" class="s3" d="m97.1 140.2c0-0.3 0.1-0.6 0.1-0.9 0.1-0.6 0.2-1.1 0.3-1.7 0-0.1 0.1-0.3 0.2-0.4 1.2-1.3 2.5-2.5 3.8-3.7 2-2 4-4 6-6.1 0.5-0.5 1.3-0.4 1.7 0 1 1.1 2.1 2.1 3.1 3.1 0.3 0.3 0.5 0.6 0.4 1-0.1 0.3-0.2 0.6-0.5 0.8q-2.6 2.6-5.1 5.1c-1.5 1.5-3 2.9-4.4 4.4-0.4 0.4-0.8 0.5-1.3 0.6-0.6 0-1.2 0.2-1.8 0.3-0.4 0.1-0.7 0.1-1.1 0.1-0.3 0-0.6 0.1-0.8 0.1-0.5-0.1-0.9-0.5-0.9-1.1 0.2 0 0.2-0.1 0.1-0.1 0.1-0.5 0.2-1 0.2-1.5zm11.3-10.5c-1.9 1.9-3.8 3.7-5.6 5.6-1 1-2 2-3 2.9-0.1 0.1-0.3 0.3-0.3 0.5-0.1 0.6-0.2 1.1-0.2 1.7l0.1 0.2q0.9-0.1 1.8-0.3c0.1 0 0.2-0.1 0.2-0.1 0.9-0.9 1.7-1.7 2.6-2.6q3-3 6-6 0.2-0.1 0-0.3c-0.5-0.5-1-1.1-1.6-1.6z"/>
	</g>
	<path id="Layer" fill-rule="evenodd" class="s3" d="m47.4 133.3c0.6-0.1 1.1-0.4 1.7-0.4 0.4 0 0.8 0.1 1.1 0.5 0.1 0.1 0.3 0.2 0.4 0.1 0.4-0.1 0.8-0.2 1.1-0.3 0.6-0.1 1.2-0.1 1.6 0.4 0 0 0.1 0 0.2 0 1.1-0.1 2 0.4 2.8 1.1 0.5 0.4 0.7 0.9 0.8 1.4 0.2 0.7 0.4 1.4 0.5 2.1 0.1 0.5 0.3 1 0.4 1.5q0 0.4 0 0.9c0 0.3-0.1 0.7-0.1 1-0.1 0.6-0.1 1.1-0.2 1.7 0 0.6-0.1 1.1-0.1 1.7 0 0.7 0 1.4 0 2 0 0.2 0.1 0.5 0.1 0.8-0.3 0.1-0.6 0-0.8 0.2-0.3 0.2-0.6 0.1-0.9 0.3-0.3 0.1-0.7 0.1-1 0.2-0.3 0.1-0.6 0.1-0.9 0.3-0.1 0.1-0.3 0-0.4 0.1-0.1 0-0.2 0.1-0.2 0.1-0.1 0-0.1 0-0.2 0.1-0.2 0.1-0.4 0.1-0.6 0.1-0.1 0-0.2 0-0.4 0.1-0.3 0.1-0.7 0.2-1 0.3-0.1 0-0.1 0-0.2 0-0.1 0-0.2 0.1-0.3 0.1-0.1 0-0.2 0.1-0.3 0.1-0.2 0-0.3 0-0.5 0.1-0.1 0.1-0.3 0-0.5 0.1-0.2 0-0.2-0.1-0.3-0.2-0.5-0.6-1-1.3-1.5-1.9q-0.6-0.8-1.2-1.5c-0.2-0.3-0.5-0.5-0.8-0.8-0.4-0.4-0.8-0.8-1.2-1.3q-0.6-0.6-1.2-1.2c-0.2-0.2-0.5-0.4-0.7-0.6-0.2-0.2-0.5-0.4-0.7-0.6q-0.1-0.2-0.3-0.3-0.1-0.5-0.3-0.9c-0.1-0.4-0.2-0.7-0.3-1.1 0-0.2 0-0.6 0.4-0.7 0.5-0.2 1-0.4 1.5-0.4 0.4 0 0.7 0.2 1.1 0.3 0.2 0.1 0.4 0.2 0.6 0.2 0.2 0.1 0.3 0 0.2-0.2q-0.1-0.6-0.3-1.2c-0.2-0.7-0.3-1.3-0.5-2q-0.3-1.2-0.6-2.4c-0.1-0.4-0.2-0.9-0.3-1.3-0.1-0.5-0.3-1-0.4-1.5-0.1-0.3-0.1-0.6 0.1-0.9 0.1-0.1 0.3-0.3 0.4-0.3 0.5-0.2 1.1-0.3 1.6-0.4 0.1 0 0.2-0.1 0.4-0.1q0.9-0.3 1.2 0.6c0.1 0.4 0.2 0.8 0.3 1.1 0.2 0.7 0.4 1.5 0.6 2.2 0 0.3 0 0.5 0.1 0.7zm-2.1 7.3c-0.7-0.4-1.4-0.7-2.2-1.1-0.1 0-0.1 0-0.2 0-0.2 0-0.5 0.1-0.7 0.2-0.1 0-0.2 0.1-0.1 0.2 0.1 0.3 0.2 0.6 0.2 0.9 0 0.2 0.2 0.3 0.3 0.5 0.2 0.1 0.3 0.2 0.5 0.4 1.9 1.8 3.8 3.5 5.4 5.6 0.4 0.6 0.9 1.1 1.3 1.7h0.1c0.4-0.1 0.7-0.2 1-0.3 0.9-0.2 1.7-0.5 2.6-0.7 1-0.3 1.9-0.5 2.9-0.8 0.2-0.1 0.2-0.1 0.2-0.3 0-0.6 0-1.1 0-1.7 0-0.6 0.1-1.1 0.1-1.7 0-0.3 0.1-0.6 0.1-1 0-0.4 0.1-0.8 0.1-1.2 0-0.3 0.1-0.7 0.1-1 0-0.2 0.1-0.5 0-0.7-0.1-0.3-0.2-0.7-0.3-1-0.2-0.8-0.4-1.5-0.6-2.3-0.1-0.2-0.1-0.5-0.3-0.7q-0.6-0.6-1.5-0.9c-0.2-0.1-0.5-0.1-0.7-0.2 0.3 1 0.5 2 0.8 3-0.3 0.1-0.5 0.1-0.8 0.2-0.1 0-0.2 0-0.2-0.1-0.1-0.5-0.2-1-0.4-1.5-0.1-0.5-0.3-1.1-0.4-1.6-0.1-0.3-0.2-0.4-0.5-0.4q-0.7 0.1-1.5 0.3c0 0.1 0 0.2 0 0.2 0.1 0.3 0.2 0.7 0.3 1 0.1 0.5 0.3 1 0.4 1.4 0 0.1 0 0.2-0.1 0.2-0.2 0-0.3 0-0.4 0.1-0.2 0.1-0.3 0-0.3-0.1-0.2-0.6-0.3-1.2-0.5-1.8-0.1-0.4-0.2-0.8-0.3-1.3-0.1-0.3-0.5-0.4-0.7-0.4q-0.6 0.1-1.2 0.3c-0.1 0-0.2 0.1-0.1 0.2 0.1 0.2 0.1 0.4 0.2 0.6 0.2 0.8 0.4 1.5 0.6 2.3 0.1 0.3 0.1 0.5 0.2 0.8-0.2 0-0.4 0-0.5 0.1-0.1 0-0.3 0.1-0.4 0.1-0.1-0.1-0.1-0.2-0.1-0.4-0.2-0.7-0.4-1.4-0.6-2.2q-0.3-1.1-0.6-2.1c-0.1-0.6-0.3-1.1-0.4-1.7-0.2-0.7-0.4-1.4-0.6-2.2-0.6 0.1-1.2 0.3-1.9 0.4 0 0.1 0 0.1 0 0.2 0.1 0.4 0.2 0.8 0.3 1.1 0.2 0.8 0.5 1.7 0.7 2.5 0.2 0.9 0.5 1.8 0.7 2.8q0.3 1.1 0.6 2.1c0.1 0.5 0.3 1.1 0.4 1.6 0 0.1 0 0.2 0 0.2-0.3 0.4-0.6 0.5-0.9 0.6 0-0.2 0-0.3-0.1-0.4z"/>
	<path id="Layer" fill-rule="evenodd" class="s3" d="m152.8 137.8c0 3.4 0 6.9 0 10.3 0 0.1 0 0.2 0 0.4 0.3 0 0.5 0 0.8 0 0.5 0 0.9 0 1.4 0 0.1 0 0.2 0.1 0.2 0.1 0 0.5 0 1 0 1.4-3.7 0-7.3 0-11 0q0-0.8 0-1.5c0.8 0 1.5 0 2.3 0 0-0.1 0.1-0.2 0.1-0.2q0-7.8 0-15.6c0-0.4 0-0.7 0-1.1 0 0 0 0 0-0.1-0.3-0.1-0.7-0.1-1 0-0.8 0.3-1.3 0.9-1.6 1.7-0.6 1.1-1 2.3-1.4 3.5q-0.2 0.5-0.3 0.9c0 0-0.1 0.1-0.2 0.1-0.4 0-0.8 0-1.3 0 0-0.6 0.1-1.2 0.1-1.7q0-1.1 0-2.1c0-0.6 0-1.1 0.1-1.7 0-0.7 0.1-1.5 0.1-2.2 5.7 0 11.4 0 17.2 0 0 0.1 0 0.1 0 0.2 0 1 0 2 0.1 3 0 0.8 0.1 1.5 0.1 2.3 0 0.5 0 0.9 0.1 1.4 0 0.2 0 0.5 0.1 0.7 0 0.2 0 0.2-0.2 0.2q-0.4 0-0.9 0c-0.1 0-0.2-0.1-0.2-0.2-0.2-0.7-0.4-1.4-0.7-2.1-0.4-0.9-0.8-1.7-1.2-2.6-0.2-0.4-0.5-0.8-0.9-1.1-0.7-0.3-1.2-0.4-1.8-0.3q0 0 0 0 0 3.2 0 6.3zm0-6.3q0 0 0 0c0.1 0 0.1-0.1 0 0zm4.7 3.2c0-0.6 0-1.1 0-1.7 0-0.5 0-1-0.1-1.5 0-0.2 0-0.5-0.1-0.7-0.9 0-1.8 0-2.7 0.1 0.1 0.1 0.1 0.1 0.2 0.2 0.7 0.4 1.1 1 1.5 1.8 0.3 0.7 0.6 1.4 1 2.1 0.1 0.1 0.1 0.3 0.2 0.4h0.1c-0.1-0.3-0.1-0.5-0.1-0.7zm-5.6 12.4c0-5.3 0-10.7 0-16 0-0.2 0-0.3-0.3-0.3q-1.9 0-3.9 0c-0.2 0-0.2 0.1-0.2 0.2 0 5.9 0 11.7 0 17.6 0 0.1 0 0.3 0 0.4 0.1 0 0.3 0 0.4 0q1.9 0 3.9 0c0 0 0 0 0.1-0.1q0-0.9 0-1.8zm-9.9-16.3c0 1.5-0.1 3-0.1 4.5 0.1 0 0.1-0.1 0.1-0.1 0.4-0.9 0.8-1.8 1.3-2.7 0.3-0.7 0.8-1.2 1.5-1.6 0 0 0-0.1 0.1-0.1-1 0-2 0-2.9 0z"/>
	<path id="Layer" class="s9" d="m102.3 447c-0.1 0-0.2-0.1-0.2-0.1 0 0 0.1 0.1 0.2 0.1z"/>
	<path id="Layer" class="s10" d="m339 458c0.1-0.1 0.1-0.2 0.2-0.3 0 0.1-0.1 0.2-0.2 0.3z"/>
	<path id="Layer" class="s11" d="m309.1 457.9c0 0.1 0.1 0.2 0.1 0.3-0.1-0.1-0.1-0.2-0.1-0.3z"/>
	<path id="Layer" class="s12" d="m144.1 489.1q0-0.1 0-0.3 0 0.1 0 0.3z"/>
	<path id="Layer" class="s13" d="m360 474.1c0.4-0.2 0.8-0.5 1.2-0.7 0 0.9 0 1.8 0 2.6-0.1 0-0.3 0.1-0.4 0.1-0.3-0.7-0.5-1.3-0.8-2z"/>
	<path id="Layer" class="s14" d="m334.6 541.1c0-0.1 0-0.3 0-0.4 0 0.2 0 0.3 0 0.4z"/>
	<g id="Layer">
		<path id="Layer" fill-rule="evenodd" class="s3" d="m214.6 151.9q-0.4-0.2-0.9-0.3c-1.4-0.5-2.8-1-4.2-1.6-1-0.5-1.9-1.1-2.8-1.7q-0.2-0.1-0.3 0c-1 0.5-2.1 1-3.2 1.4-1.1 0.4-2.3 0.6-3.4 0.8-1 0.2-2 0.3-3 0.4-1.1 0.1-2.2 0.1-3.3 0.1-1.2 0-2.4-0.1-3.5-0.3-1.3-0.2-2.5-0.5-3.7-0.8-1.1-0.3-2.1-0.9-3-1.5-1.1-0.8-1.9-1.8-2.5-3-0.7-1.3-0.9-2.6-1-4-0.1-1.5 0.1-3 0.4-4.5 0.1-0.8 0.3-1.5 0.6-2.3q0.8-1.8 2.4-3c0.2-0.2 0.5-0.3 0.7-0.4 1.1-0.6 2.3-1 3.5-1.4 1.8-0.6 3.6-1.1 5.4-1.6q2-0.5 3.9-0.9 2-0.3 3.9-0.6c1-0.1 2-0.2 3-0.2 1.1 0 2.1 0.1 3.2 0.3 1.3 0.3 2.4 0.8 3.4 1.6 0.9 0.7 1.6 1.5 2.2 2.4 0.8 1.3 1.3 2.8 1.6 4.3 0.2 0.9 0.2 1.7 0.1 2.6-0.1 0.9-0.3 1.8-0.5 2.7-0.3 1-0.8 1.9-1.3 2.8-0.4 0.7-1 1.3-1.5 1.9q-0.1 0.1 0 0.3c0.5 1.1 1.1 2.2 1.6 3.2 0.6 1 1.2 2 1.9 2.9 0 0 0.1 0.2 0.3 0.4zm-0.9-0.7c-1.1-1.5-2-3-2.8-4.6-0.3-0.5-0.4-1-0.7-1.5 0-0.1 0-0.1 0-0.2 0.3-0.3 0.5-0.7 0.8-1 1-1.3 1.7-2.7 2.2-4.2 0.4-1.3 0.5-2.7 0.4-4.1-0.2-1.6-0.7-3.2-1.5-4.6-1-1.6-2.3-2.8-4.1-3.5-1.1-0.4-2.3-0.7-3.5-0.7-1.3-0.1-2.6 0-3.9 0.2-1.3 0.1-2.7 0.4-4 0.6-1.3 0.2-2.7 0.5-4 0.9-1.6 0.4-3.2 0.8-4.7 1.4-1.2 0.4-2.4 0.8-3.5 1.3-0.6 0.3-1.1 0.6-1.6 1-1.2 1-1.9 2.3-2.3 3.8-0.2 0.7-0.3 1.5-0.4 2.2-0.2 1.1-0.3 2.1-0.2 3.2 0.1 1 0.3 1.9 0.6 2.8 0.5 1.2 1.2 2.3 2.2 3.2 1.2 1.1 2.7 1.8 4.3 2.3 1.5 0.5 3.1 0.7 4.7 0.8 1.5 0.1 3 0.2 4.6 0.1 1.8-0.1 3.6-0.3 5.4-0.8q2.4-0.6 4.5-1.8c0.2-0.1 0.4-0.2 0.7 0 0.7 0.5 1.5 1 2.3 1.4q2.3 1.1 4.5 1.8z"/>
	</g>
</svg>